<svg width="261" height="104" viewBox="0 0 261 104" fill="none" xmlns="http://www.w3.org/2000/svg">
<g clip-path="url(#clip0_1321_7633)">
<path d="M162.142 43.7739C162.049 43.9478 161.916 44.0348 161.742 44.0348C161.608 44.0348 161.437 43.9401 161.227 43.7509C161.016 43.5616 160.732 43.3518 160.373 43.1216C160.014 42.8914 159.566 42.6791 159.027 42.4847C158.489 42.2903 157.825 42.1932 157.036 42.1932C156.246 42.1932 155.551 42.3057 154.952 42.5308C154.352 42.7559 153.849 43.0628 153.444 43.4516C153.039 43.8404 152.732 44.2906 152.522 44.8021C152.311 45.3137 152.206 45.8508 152.206 46.4135C152.206 47.1502 152.363 47.7589 152.675 48.2398C152.988 48.7207 153.401 49.1299 153.914 49.4676C154.426 49.8052 155.008 50.0891 155.659 50.3193C156.31 50.5495 156.979 50.7772 157.666 51.0022C158.353 51.2273 159.022 51.4754 159.673 51.7466C160.324 52.0177 160.906 52.3579 161.419 52.7671C161.931 53.1764 162.344 53.6803 162.657 54.2788C162.97 54.8773 163.126 55.6216 163.126 56.5118C163.126 57.4223 162.97 58.2792 162.657 59.0823C162.344 59.8855 161.89 60.5838 161.296 61.1772C160.701 61.7706 159.973 62.2387 159.112 62.5814C158.251 62.9242 157.266 63.0955 156.159 63.0955C154.724 63.0955 153.488 62.8423 152.452 62.3359C151.417 61.8294 150.509 61.1363 149.73 60.2564L150.161 59.5811C150.284 59.4277 150.427 59.3509 150.591 59.3509C150.684 59.3509 150.802 59.4123 150.945 59.5351C151.089 59.6579 151.263 59.8088 151.468 59.9878C151.673 60.1669 151.919 60.3613 152.206 60.571C152.493 60.7807 152.827 60.9751 153.206 61.1542C153.585 61.3332 154.021 61.4841 154.513 61.6069C155.005 61.7297 155.564 61.7911 156.19 61.7911C157.051 61.7911 157.82 61.6606 158.497 61.3997C159.173 61.1388 159.745 60.7833 160.211 60.3331C160.678 59.8829 161.034 59.3484 161.28 58.7294C161.526 58.1104 161.649 57.4479 161.649 56.742C161.649 55.9746 161.493 55.3428 161.18 54.8466C160.868 54.3504 160.455 53.936 159.942 53.6035C159.43 53.271 158.848 52.9922 158.197 52.7671C157.546 52.542 156.877 52.3221 156.19 52.1072C155.503 51.8924 154.834 51.6519 154.183 51.3859C153.532 51.1199 152.95 50.7797 152.437 50.3653C151.924 49.951 151.512 49.4343 151.199 48.8153C150.886 48.1963 150.73 47.4213 150.73 46.4903C150.73 45.7639 150.868 45.063 151.145 44.3878C151.422 43.7125 151.827 43.1165 152.36 42.5998C152.893 42.0832 153.552 41.6688 154.336 41.3568C155.121 41.0447 156.015 40.8887 157.02 40.8887C158.148 40.8887 159.161 41.0677 160.058 41.4258C160.955 41.7839 161.773 42.3313 162.511 43.0679L162.142 43.7739Z" fill="white"/>
<path d="M181.905 41.1343V42.4695H174.261V62.8501H172.692V42.4695H165.002V41.1343H181.905Z" fill="white"/>
<path d="M193.716 61.7297C194.762 61.7297 195.698 61.5481 196.523 61.1849C197.348 60.8217 198.048 60.3178 198.622 59.6733C199.196 59.0287 199.635 58.269 199.937 57.3943C200.24 56.5195 200.391 55.5757 200.391 54.5628V41.1343H201.96V54.5628C201.96 55.7598 201.77 56.8776 201.391 57.916C201.011 58.9545 200.465 59.86 199.753 60.6324C199.04 61.4049 198.174 62.0111 197.154 62.451C196.133 62.891 194.988 63.111 193.716 63.111C192.445 63.111 191.299 62.891 190.279 62.451C189.259 62.0111 188.392 61.4049 187.68 60.6324C186.967 59.86 186.421 58.9545 186.042 57.916C185.662 56.8776 185.473 55.7598 185.473 54.5628V41.1343H187.057V54.5474C187.057 55.5603 187.208 56.5041 187.51 57.3789C187.813 58.2537 188.249 59.0133 188.818 59.6579C189.387 60.3025 190.084 60.8089 190.909 61.1772C191.735 61.5456 192.67 61.7297 193.716 61.7297Z" fill="white"/>
<path d="M226.552 51.9845C226.552 53.6624 226.301 55.1715 225.798 56.5118C225.296 57.8521 224.588 58.9929 223.676 59.9342C222.763 60.8754 221.671 61.5967 220.4 62.0981C219.129 62.5994 217.719 62.8501 216.171 62.8501H208.235V41.1343H216.171C217.719 41.1343 219.129 41.3849 220.4 41.8863C221.671 42.3876 222.763 43.1089 223.676 44.0502C224.588 44.9914 225.296 46.1322 225.798 47.4725C226.301 48.8128 226.552 50.3168 226.552 51.9845ZM224.922 51.9845C224.922 50.4703 224.711 49.1197 224.291 47.9329C223.871 46.7461 223.279 45.7434 222.515 44.9249C221.751 44.1064 220.831 43.4823 219.754 43.0526C218.677 42.6229 217.483 42.4081 216.171 42.4081H209.819V61.5763H216.171C217.483 61.5763 218.677 61.3614 219.754 60.9317C220.831 60.502 221.751 59.8779 222.515 59.0594C223.279 58.2409 223.871 57.2382 224.291 56.0514C224.711 54.8646 224.922 53.5089 224.922 51.9845Z" fill="white"/>
<path d="M233.765 62.8501H232.181V41.1343H233.765V62.8501Z" fill="white"/>
<path d="M260.218 51.9844C260.218 53.6624 259.967 55.1843 259.464 56.5501C258.962 57.916 258.255 59.0823 257.342 60.0492C256.43 61.016 255.338 61.7629 254.066 62.2898C252.795 62.8167 251.385 63.0802 249.837 63.0802C248.309 63.0802 246.909 62.8167 245.638 62.2898C244.367 61.7629 243.275 61.016 242.362 60.0492C241.45 59.0823 240.74 57.916 240.232 56.5501C239.725 55.1843 239.471 53.6624 239.471 51.9844C239.471 50.3167 239.725 48.8 240.232 47.4341C240.74 46.0682 241.45 44.9019 242.362 43.935C243.275 42.9682 244.367 42.2187 245.638 41.6867C246.909 41.1547 248.309 40.8887 249.837 40.8887C251.385 40.8887 252.795 41.1521 254.066 41.679C255.338 42.2059 256.43 42.9554 257.342 43.9273C258.255 44.8993 258.962 46.0682 259.464 47.4341C259.967 48.8 260.218 50.3167 260.218 51.9844ZM258.588 51.9844C258.588 50.4702 258.378 49.1095 257.957 47.9022C257.537 46.6949 256.945 45.6718 256.181 44.8328C255.417 43.9938 254.497 43.3518 253.42 42.9068C252.344 42.4617 251.149 42.2392 249.837 42.2392C248.545 42.2392 247.363 42.4617 246.292 42.9068C245.22 43.3518 244.297 43.9938 243.523 44.8328C242.749 45.6718 242.149 46.6949 241.724 47.9022C241.298 49.1095 241.086 50.4702 241.086 51.9844C241.086 53.5089 241.298 54.8722 241.724 56.0744C242.149 57.2765 242.749 58.2971 243.523 59.1361C244.297 59.975 245.22 60.6145 246.292 61.0544C247.363 61.4944 248.545 61.7143 249.837 61.7143C251.149 61.7143 252.344 61.4944 253.42 61.0544C254.497 60.6145 255.417 59.975 256.181 59.1361C256.945 58.2971 257.537 57.2765 257.957 56.0744C258.378 54.8722 258.588 53.5089 258.588 51.9844Z" fill="white"/>
<path d="M70.2344 52.953C70.4417 53.3394 70.6412 53.7411 70.833 54.1579C71.0247 54.5748 71.2087 55.0019 71.3849 55.4391C71.5611 54.9917 71.7477 54.557 71.9446 54.1351C72.1415 53.7131 72.3437 53.3038 72.551 52.9073L78.3657 41.6818C78.4694 41.4886 78.5756 41.3386 78.6845 41.2318C78.7933 41.1251 78.9151 41.0463 79.0498 40.9954C79.1846 40.9446 79.3375 40.9141 79.5085 40.9039C79.6795 40.8938 79.879 40.8887 80.1071 40.8887H83.0048C83.6198 40.8887 84.1183 41.3861 84.1183 41.9998V61.9998C84.1183 62.6134 83.6198 63.1109 83.0048 63.1109H80.5986C79.9837 63.1109 79.4852 62.6134 79.4852 61.9998V50.3297C79.4852 49.7094 79.5163 49.0383 79.5784 48.3164L73.5771 59.7402C73.3905 60.0961 73.1392 60.3655 72.823 60.5485C72.5069 60.7316 72.1467 60.8231 71.7425 60.8231H71.0273C70.6231 60.8231 70.2629 60.7316 69.9468 60.5485C69.6306 60.3655 69.3793 60.0961 69.1927 59.7402L63.1603 48.3012C63.2017 48.657 63.2328 49.0104 63.2536 49.3612C63.2743 49.712 63.2846 50.0348 63.2846 50.3297V61.9998C63.2846 62.6134 62.7861 63.1109 62.1712 63.1109H59.765C59.15 63.1109 58.6515 62.6134 58.6515 61.9998V41.9998C58.6515 41.3861 59.15 40.8887 59.765 40.8887H62.6627C62.8908 40.8887 63.0903 40.8938 63.2613 40.9039C63.4324 40.9141 63.5852 40.9446 63.72 40.9954C63.8547 41.0463 63.9765 41.1251 64.0853 41.2318C64.1942 41.3386 64.3004 41.4886 64.4041 41.6818L70.2344 52.953Z" fill="white"/>
<path d="M96.4094 58.8414C97.093 58.8414 97.7036 58.7283 98.2415 58.502C98.7793 58.2757 99.2341 57.9514 99.6061 57.5289C99.978 57.1065 100.262 56.5911 100.458 55.9826C100.654 55.3741 100.752 54.6826 100.752 53.9082V41.9998C100.752 41.3861 101.251 40.8887 101.866 40.8887H104.735C105.35 40.8887 105.849 41.3861 105.849 41.9998V53.9082C105.849 55.2559 105.63 56.493 105.193 57.6195C104.755 58.7459 104.13 59.7165 103.315 60.5311C102.501 61.3458 101.511 61.9794 100.345 62.432C99.1788 62.8846 97.867 63.1109 96.4094 63.1109C94.9418 63.1109 93.6249 62.8846 92.4588 62.432C91.2927 61.9794 90.3026 61.3458 89.4883 60.5311C88.6741 59.7165 88.0508 58.7459 87.6186 57.6195C87.1863 56.493 86.9702 55.2559 86.9702 53.9082V41.9998C86.9702 41.3861 87.4687 40.8887 88.0837 40.8887H90.9533C91.5682 40.8887 92.0668 41.3861 92.0668 41.9998V53.8931C92.0668 54.6676 92.1648 55.359 92.3608 55.9675C92.5568 56.576 92.8408 57.0939 93.2127 57.5214C93.5847 57.9488 94.0396 58.2757 94.5774 58.502C95.1152 58.7283 95.7258 58.8414 96.4094 58.8414Z" fill="white"/>
<path d="M114.667 54.89V61.9998C114.667 62.6134 114.168 63.1109 113.553 63.1109H110.628C110.013 63.1109 109.514 62.6134 109.514 61.9998V41.9998C109.514 41.3861 110.013 40.8887 110.628 40.8887H116.74C118.345 40.8887 119.715 41.0539 120.848 41.3844C121.981 41.7148 122.906 42.1749 123.623 42.7647C124.339 43.3544 124.86 44.0509 125.185 44.8542C125.51 45.6575 125.673 46.5319 125.673 47.4776C125.673 48.1995 125.576 48.8807 125.383 49.5213C125.19 50.1619 124.903 50.7542 124.522 51.2982C124.141 51.8422 123.673 52.3277 123.119 52.7548C122.745 53.0437 122.332 53.2978 121.88 53.5169C121.869 53.5221 122.736 55.0121 122.959 55.3781L126.653 61.4213C126.973 61.9452 126.807 62.6289 126.282 62.9484C126.107 63.0547 125.906 63.1109 125.702 63.1109H123.02C122.157 63.1109 121.537 62.7855 121.161 62.1348L117.471 55.6832C117.309 55.3984 117.118 55.1951 116.9 55.0731C116.681 54.9511 116.374 54.89 115.978 54.89H114.667ZM114.667 51.3363H116.74C117.441 51.3363 118.038 51.2473 118.531 51.0694C119.024 50.8915 119.428 50.6449 119.743 50.3297C120.058 50.0145 120.287 49.6459 120.429 49.2239C120.571 48.8019 120.642 48.3469 120.642 47.8589C120.642 46.8827 120.325 46.1201 119.69 45.571C119.054 45.022 118.071 44.7474 116.74 44.7474H114.667V51.3363Z" fill="white"/>
<path d="M143.936 41.9998V43.7431C143.936 44.3567 143.437 44.8542 142.822 44.8542H134.82V50.4822H141.298C141.913 50.4822 142.412 50.9797 142.412 51.5933V53.3519C142.412 53.9655 141.913 54.463 141.298 54.463H134.82V61.9998C134.82 62.6134 134.321 63.1109 133.706 63.1109H130.75C130.135 63.1109 129.637 62.6134 129.637 61.9998V41.9998C129.637 41.3861 130.135 40.8887 130.75 40.8887H142.822C143.437 40.8887 143.936 41.3861 143.936 41.9998Z" fill="white"/>
<g clip-path="url(#clip1_1321_7633)">
<path d="M29.7007 36.4444C29.7007 33.9898 31.6949 32 34.1547 32H36.3817C38.8415 32 40.8357 33.9898 40.8357 36.4444V67.5556C40.8357 70.0102 38.8415 72 36.3817 72H34.1547C31.6949 72 29.7007 70.0102 29.7007 67.5556V36.4444Z" fill="#FFCE00"/>
<path d="M15.2254 46.4444C15.2254 43.9898 17.2195 42 19.6793 42H21.9063C24.3662 42 26.3603 43.9898 26.3603 46.4444V57.5556C26.3603 60.0102 24.3662 62 21.9063 62H19.6793C17.2195 62 15.2254 60.0102 15.2254 57.5556V46.4444Z" fill="#FFCE00"/>
<path d="M0.75 36.4444C0.75 33.9898 2.74411 32 5.20396 32H7.43094C9.8908 32 11.8849 33.9898 11.8849 36.4444V67.5556C11.8849 70.0102 9.8908 72 7.43094 72H5.20396C2.74411 72 0.75 70.0102 0.75 67.5556V36.4444Z" fill="#FFCE00"/>
</g>
</g>
<defs>
<clipPath id="clip0_1321_7633">
<rect width="260" height="40" fill="white" transform="translate(0.75 32)"/>
</clipPath>
<clipPath id="clip1_1321_7633">
<rect width="40.0857" height="40" fill="white" transform="translate(0.75 32)"/>
</clipPath>
</defs>
</svg>
